<svg width="192" height="192" viewBox="0 0 192 192" fill="none" xmlns="http://www.w3.org/2000/svg">
<path d="M142.25 77.5V91.375C142.25 106.095 136.403 120.211 125.994 130.619C115.586 141.028 101.47 146.875 86.75 146.875H26.625L82.125 77.5V65.9375C82.1372 58.6345 84.8075 51.5856 89.637 46.1075C94.4666 40.6293 101.125 37.0965 108.369 36.1689C115.613 35.2413 122.947 36.9823 129.001 41.0667C135.055 45.1512 139.415 51.2998 141.267 58.3641L156.125 68.25L142.25 77.5Z" stroke="url(#paint0_linear_3_12)" stroke-width="12" stroke-linecap="round" stroke-linejoin="round"/>
<path d="M116.812 68.25C120.644 68.25 123.75 65.144 123.75 61.3125C123.75 57.481 120.644 54.375 116.812 54.375C112.981 54.375 109.875 57.481 109.875 61.3125C109.875 65.144 112.981 68.25 116.812 68.25Z" fill="url(#paint1_linear_3_12)"/>
<path d="M91.375 100.625L68.25 128.375" stroke="url(#paint2_linear_3_12)" stroke-width="12" stroke-linecap="round" stroke-linejoin="round"/>
<defs>
<linearGradient id="paint0_linear_3_12" x1="156.125" y1="35.875" x2="26.625" y2="146.875" gradientUnits="userSpaceOnUse">
<stop stop-color="#76E4F7"/>
<stop offset="1" stop-color="#00A3C4"/>
</linearGradient>
<linearGradient id="paint1_linear_3_12" x1="109.875" y1="68.25" x2="123.75" y2="54.375" gradientUnits="userSpaceOnUse">
<stop stop-color="#0BC5EA"/>
<stop offset="1" stop-color="#76E4F7"/>
</linearGradient>
<linearGradient id="paint2_linear_3_12" x1="64.7813" y1="131.844" x2="94.4583" y2="96.7708" gradientUnits="userSpaceOnUse">
<stop stop-color="#00A3C4"/>
<stop offset="1" stop-color="#0BC5EA"/>
</linearGradient>
</defs>
</svg>
